<svg width="120" height="100" viewBox="0 0 120 100" fill="none" xmlns="http://www.w3.org/2000/svg">
  <g id="triangles" clip-path="url(#clip0)">
    <g id="lightGroup">
      <path
        id="light1"
        opacity="0.7"
        d="M42 48.268C43.3333 49.0378 43.3333 50.9623 42 51.7321L7.5 71.6506C6.16666 72.4204 4.5 71.4582 4.5 69.9186L4.5 30.0814C4.5 28.5418 6.16667 27.5796 7.5 28.3494L42 48.268Z"
        fill="#12C8F0"
      />
    </g>
    <g id="darkGroup">
      <path
        id="dark1"
        opacity="0.7"
        d="M57 48.268C58.3333 49.0378 58.3333 50.9623 57 51.7321L22.5 71.6506C21.1667 72.4204 19.5 71.4582 19.5 69.9186L19.5 30.0814C19.5 28.5418 21.1667 27.5796 22.5 28.3494L57 48.268Z"
        fill="#1132A7"
      />
      <path
        id="dark2"
        opacity="0.7"
        d="M42 48.268C43.3333 49.0378 43.3333 50.9623 42 51.7321L7.5 71.6506C6.16666 72.4204 4.5 71.4582 4.5 69.9186L4.5 30.0814C4.5 28.5418 6.16667 27.5796 7.5 28.3494L42 48.268Z"
        fill="#1132A7"
      />
    </g>
  </g>
  <!-- <defs>
    <clipPath id="clip0">
      <rect width="120" height="100" fill="white"/>
    </clipPath>
  </defs> -->
</svg>
